<svg xmlns="http://www.w3.org/2000/svg" xmlns:xlink="http://www.w3.org/1999/xlink" width="500" zoomAndPan="magnify" viewBox="0 0 375 374.999991" height="500" preserveAspectRatio="xMidYMid meet" version="1.0"><defs><g/><clipPath id="39df98dab5"><path d="M 30.195312 26 L 344.445312 26 L 344.445312 168 L 30.195312 168 Z M 30.195312 26 " clip-rule="nonzero"/></clipPath><clipPath id="56c54411bd"><path d="M 30.195312 265 L 344.445312 265 L 344.445312 349 L 30.195312 349 Z M 30.195312 265 " clip-rule="nonzero"/></clipPath></defs><g clip-path="url(#39df98dab5)"><path fill="#ff66c4" d="M 37.472656 167.699219 L 337.25 167.699219 C 341.136719 167.699219 344.28125 164.554688 344.28125 160.660156 C 344.28125 156.765625 341.136719 153.621094 337.25 153.621094 L 296.480469 153.621094 L 289.535156 113.695312 C 287.550781 102.265625 277.625 93.980469 265.964844 93.980469 L 232.058594 93.980469 L 232.058594 71.117188 C 232.058594 46.351562 211.964844 26.222656 187.238281 26.222656 C 162.511719 26.222656 142.417969 46.351562 142.417969 71.117188 L 142.417969 93.980469 L 108.511719 93.980469 C 96.851562 93.980469 86.925781 102.265625 84.941406 113.695312 L 77.996094 153.621094 L 37.390625 153.621094 C 33.503906 153.621094 30.363281 156.765625 30.363281 160.660156 C 30.363281 164.554688 33.585938 167.699219 37.472656 167.699219 Z M 98.835938 116.179688 C 99.660156 111.457031 103.714844 108.0625 108.511719 108.0625 L 142.417969 108.0625 L 142.417969 118.417969 C 142.417969 122.308594 145.558594 125.457031 149.445312 125.457031 C 153.332031 125.457031 156.476562 122.308594 156.476562 118.417969 L 156.476562 71.035156 C 156.476562 54.054688 170.285156 40.222656 187.238281 40.222656 C 204.191406 40.222656 218 54.054688 218 71.035156 L 218 93.898438 L 179.878906 93.898438 C 175.992188 93.898438 172.847656 97.046875 172.847656 100.9375 C 172.847656 104.832031 175.992188 107.980469 179.878906 107.980469 L 265.964844 107.980469 C 270.761719 107.980469 274.816406 111.375 275.640625 116.097656 L 282.175781 153.535156 L 92.382812 153.535156 Z M 98.835938 116.179688 " fill-opacity="1" fill-rule="nonzero"/></g><g clip-path="url(#56c54411bd)"><path fill="#00c2cb" d="M 337.167969 265.773438 L 37.472656 265.773438 C 33.585938 265.773438 30.445312 268.921875 30.445312 272.816406 C 30.445312 276.707031 33.585938 279.855469 37.472656 279.855469 L 56.164062 279.855469 L 48.96875 320.855469 C 47.726562 327.816406 49.628906 334.9375 54.179688 340.40625 C 58.726562 345.871094 65.425781 348.9375 72.539062 348.9375 L 302.1875 348.9375 C 309.21875 348.9375 315.914062 345.789062 320.464844 340.40625 C 325.011719 334.9375 326.914062 327.816406 325.675781 320.855469 L 318.480469 279.855469 L 337.25 279.855469 C 341.136719 279.855469 344.28125 276.707031 344.28125 272.816406 C 344.28125 268.921875 341.054688 265.773438 337.167969 265.773438 Z M 309.628906 331.375 C 307.730469 333.613281 305.082031 334.855469 302.1875 334.855469 L 72.453125 334.855469 C 69.558594 334.855469 66.75 333.613281 64.929688 331.375 C 63.027344 329.140625 62.28125 326.242188 62.777344 323.34375 L 70.386719 279.855469 L 304.171875 279.855469 L 311.78125 323.34375 C 312.277344 326.242188 311.449219 329.140625 309.628906 331.375 Z M 309.628906 331.375 " fill-opacity="1" fill-rule="nonzero"/></g><g fill="#ffffff" fill-opacity="1"><g transform="translate(2.147673, 236.892025)"><g><path d="M 0.410156 -8.851562 C 2.402344 -1.523438 11.726562 0.585938 17.824219 0.585938 C 25.152344 0.585938 35.410156 -1.992188 35.410156 -11.316406 C 35.410156 -20.636719 26.617188 -20.988281 18.46875 -21.75 C 12.722656 -22.160156 7.796875 -22.628906 7.796875 -26.441406 C 7.796875 -30.546875 14.128906 -31.660156 17.296875 -31.660156 C 20.871094 -31.660156 26.148438 -31.191406 27.554688 -27.554688 C 28.023438 -26.5 29.253906 -25.914062 30.546875 -25.914062 C 32.539062 -25.914062 34.53125 -27.554688 33.886719 -29.722656 C 31.132812 -36.171875 23.332031 -37.933594 17.238281 -37.933594 C 9.90625 -37.933594 0.761719 -34.53125 0.761719 -26.5 C 0.761719 -17.589844 9.847656 -16.472656 17.824219 -15.828125 C 23.039062 -15.417969 28.375 -14.949219 28.375 -11.257812 C 28.375 -6.625 21.925781 -5.570312 17.824219 -5.570312 C 13.894531 -5.570312 8.5 -6.449219 7.210938 -10.261719 C 6.917969 -11.785156 5.511719 -12.546875 3.988281 -12.546875 C 1.933594 -12.546875 -0.175781 -11.140625 0.410156 -8.851562 Z M 0.410156 -8.851562 "/></g></g></g><g fill="#ffffff" fill-opacity="1"><g transform="translate(42.76989, 236.892025)"><g><path d="M 6.917969 -37.347656 C 5.21875 -37.347656 3.578125 -36.054688 3.578125 -34.003906 L 3.578125 -3.046875 C 3.578125 -0.996094 5.277344 0 6.976562 0 C 8.617188 0 10.378906 -0.996094 10.378906 -3.046875 L 10.378906 -22.746094 L 18.996094 -9.320312 C 19.640625 -8.148438 20.988281 -7.445312 22.160156 -7.445312 C 23.332031 -7.445312 24.566406 -7.972656 25.210938 -9.144531 L 33.945312 -22.804688 L 33.945312 -3.046875 C 33.945312 -0.996094 35.585938 0 37.285156 0 C 38.929688 0 40.746094 -0.996094 40.746094 -3.046875 L 40.746094 -34.0625 C 40.746094 -36.171875 39.164062 -37.347656 37.464844 -37.347656 C 36.347656 -37.347656 35.117188 -36.816406 34.355469 -35.644531 L 22.160156 -16.414062 L 9.90625 -35.585938 C 9.203125 -36.699219 8.03125 -37.347656 6.917969 -37.347656 Z M 6.917969 -37.347656 "/></g></g></g><g fill="#ffffff" fill-opacity="1"><g transform="translate(92.536385, 236.892025)"><g><path d="M 2.636719 -34.179688 L 2.636719 -2.988281 C 2.636719 -0.9375 4.28125 0 6.039062 0 C 7.738281 0 9.496094 -0.996094 9.496094 -2.988281 L 9.496094 -34.179688 C 9.496094 -36.347656 7.738281 -37.347656 6.039062 -37.347656 C 4.28125 -37.347656 2.636719 -36.347656 2.636719 -34.179688 Z M 2.636719 -34.179688 "/></g></g></g><g fill="#ffffff" fill-opacity="1"><g transform="translate(108.18769, 236.892025)"><g><path d="M 6.859375 0 L 29.429688 0 C 31.71875 0 32.949219 -1.40625 32.949219 -2.929688 C 32.949219 -4.339844 31.71875 -5.863281 29.429688 -5.863281 L 10.203125 -5.863281 L 10.203125 -34.355469 C 10.203125 -36.347656 8.441406 -37.347656 6.800781 -37.347656 C 5.042969 -37.347656 3.339844 -36.347656 3.339844 -34.355469 L 3.339844 -3.164062 C 3.339844 -1.113281 4.339844 0 6.859375 0 Z M 6.859375 0 "/></g></g></g><g fill="#ffffff" fill-opacity="1"><g transform="translate(144.706712, 236.892025)"><g><path d="M 30.546875 -5.863281 L 10.082031 -5.863281 L 10.082031 -15.59375 L 29.488281 -15.59375 C 31.542969 -15.59375 32.539062 -17.003906 32.539062 -18.410156 C 32.539062 -19.875 31.484375 -21.339844 29.488281 -21.339844 L 10.082031 -21.339844 L 10.082031 -31.601562 L 30.546875 -31.601562 C 32.539062 -31.601562 33.652344 -33.125 33.652344 -34.53125 C 33.652344 -35.996094 32.65625 -37.347656 30.546875 -37.347656 L 7.269531 -37.347656 C 4.925781 -37.347656 3.402344 -35.761719 3.402344 -33.886719 L 3.402344 -3.519531 C 3.402344 -1.582031 4.925781 0 7.269531 0 L 30.546875 0 C 32.714844 0 33.769531 -1.40625 33.769531 -2.8125 C 33.769531 -4.28125 32.597656 -5.863281 30.546875 -5.863281 Z M 30.546875 -5.863281 "/></g></g></g><g fill="#ffffff" fill-opacity="1"><g transform="translate(184.918616, 236.892025)"><g/></g></g><g fill="#ffffff" fill-opacity="1"><g transform="translate(203.676625, 236.892025)"><g><path d="M 6.917969 -37.347656 C 5.21875 -37.347656 3.578125 -36.054688 3.578125 -34.003906 L 3.578125 -3.046875 C 3.578125 -0.996094 5.277344 0 6.976562 0 C 8.617188 0 10.378906 -0.996094 10.378906 -3.046875 L 10.378906 -22.746094 L 18.996094 -9.320312 C 19.640625 -8.148438 20.988281 -7.445312 22.160156 -7.445312 C 23.332031 -7.445312 24.566406 -7.972656 25.210938 -9.144531 L 33.945312 -22.804688 L 33.945312 -3.046875 C 33.945312 -0.996094 35.585938 0 37.285156 0 C 38.929688 0 40.746094 -0.996094 40.746094 -3.046875 L 40.746094 -34.0625 C 40.746094 -36.171875 39.164062 -37.347656 37.464844 -37.347656 C 36.347656 -37.347656 35.117188 -36.816406 34.355469 -35.644531 L 22.160156 -16.414062 L 9.90625 -35.585938 C 9.203125 -36.699219 8.03125 -37.347656 6.917969 -37.347656 Z M 6.917969 -37.347656 "/></g></g></g><g fill="#ffffff" fill-opacity="1"><g transform="translate(253.443132, 236.892025)"><g><path d="M 19.171875 -37.933594 C 17.648438 -37.933594 16.707031 -37.582031 16.121094 -36.289062 L -0.585938 -3.578125 C -1.640625 -1.289062 0.644531 0.585938 2.695312 0.585938 C 3.8125 0.585938 5.042969 0.117188 5.628906 -1.113281 L 9.730469 -9.261719 L 28.609375 -9.261719 L 32.714844 -1.113281 C 33.300781 0 34.589844 0.585938 35.703125 0.585938 C 37.933594 0.585938 40.277344 -1.171875 38.753906 -3.753906 L 22.160156 -36.289062 C 21.574219 -37.464844 20.402344 -37.933594 19.171875 -37.933594 Z M 19.171875 -28.023438 L 25.738281 -14.949219 L 12.605469 -14.949219 Z M 19.171875 -28.023438 "/></g></g></g><g fill="#ffffff" fill-opacity="1"><g transform="translate(297.054824, 236.892025)"><g><path d="M 33.828125 -5.746094 L 26.792969 -13.132812 C 32.773438 -14.832031 35.703125 -19.171875 35.703125 -24.683594 C 35.703125 -31.71875 30.367188 -37.347656 19.875 -37.347656 L 6.800781 -37.347656 C 4.808594 -37.347656 3.402344 -36.113281 3.402344 -34.296875 L 3.402344 -2.988281 C 3.402344 -1.054688 5.042969 0 6.800781 0 C 8.441406 0 10.203125 -1.054688 10.203125 -3.046875 L 10.203125 -12.3125 L 19.054688 -12.3125 L 29.546875 -1.113281 C 32.480469 2.050781 37.40625 -1.992188 33.828125 -5.746094 Z M 10.203125 -18 L 10.203125 -31.425781 L 19.933594 -31.425781 C 25.445312 -31.425781 28.785156 -28.492188 28.84375 -24.625 C 28.960938 -21.046875 26.207031 -18 19.933594 -18 Z M 10.203125 -18 "/></g></g></g><g fill="#ffffff" fill-opacity="1"><g transform="translate(338.321827, 236.892025)"><g><path d="M 30.367188 -37.347656 L 1.816406 -37.347656 C -0.46875 -37.347656 -1.464844 -35.820312 -1.464844 -34.296875 C -1.464844 -32.832031 -0.46875 -31.308594 1.816406 -31.308594 L 12.664062 -31.308594 L 12.664062 -3.105469 C 12.664062 -0.996094 14.421875 0 16.0625 0 C 17.589844 0 19.523438 -0.996094 19.523438 -3.105469 L 19.464844 -31.308594 L 30.367188 -31.308594 C 32.597656 -31.308594 33.828125 -32.832031 33.828125 -34.296875 C 33.828125 -35.820312 32.597656 -37.347656 30.367188 -37.347656 Z M 30.367188 -37.347656 "/></g></g></g></svg>